<?xml version="1.0" standalone="no"?>
<!DOCTYPE svg PUBLIC "-//W3C//DTD SVG 20010904//EN"
 "http://www.w3.org/TR/2001/REC-SVG-20010904/DTD/svg10.dtd">
<svg version="1.0" xmlns="http://www.w3.org/2000/svg"
 width="300.000000pt" height="300.000000pt" viewBox="0 0 300.000000 300.000000"
 preserveAspectRatio="xMidYMid meet">
<metadata>
Created by potrace 1.14, written by Peter Selinger 2001-2017
</metadata>
<g transform="translate(0.000000,300.000000) scale(0.100000,-0.100000)"
fill="#000000" stroke="none">
<path d="M1350 2993 c-218 -31 -371 -75 -510 -147 -129 -67 -151 -81 -236
-144 -193 -145 -339 -321 -448 -538 -108 -215 -155 -432 -151 -689 2 -129 7
-177 30 -300 8 -43 36 -138 45 -156 6 -10 9 -19 6 -19 -4 0 39 -103 77 -180
58 -121 171 -275 288 -390 202 -199 445 -331 729 -396 169 -39 447 -40 620 -4
377 80 692 285 928 605 28 38 94 153 125 217 40 83 102 262 112 318 3 19 11
60 17 90 13 61 17 357 6 435 -6 43 -14 87 -32 171 -13 60 -72 216 -111 296
-222 442 -602 725 -1100 819 -58 10 -343 19 -395 12z"/>
</g>
</svg>
