<svg width="14" height="14" viewBox="0 0 14 14" fill="none" xmlns="http://www.w3.org/2000/svg">
<path fill-rule="evenodd" clip-rule="evenodd" d="M7.66667 0.666667C7.66667 0.489856 7.59643 0.320287 7.4714 0.195262C7.34638 0.070238 7.17681 0 7 0C6.82319 0 6.65362 0.070238 6.5286 0.195262C6.40357 0.320287 6.33333 0.489856 6.33333 0.666667V6.33333H0.666667C0.489856 6.33333 0.320287 6.40357 0.195262 6.5286C0.070238 6.65362 0 6.82319 0 7C0 7.17681 0.070238 7.34638 0.195262 7.4714C0.320287 7.59643 0.489856 7.66667 0.666667 7.66667H6.33333V13.3333C6.33333 13.5101 6.40357 13.6797 6.5286 13.8047C6.65362 13.9298 6.82319 14 7 14C7.17681 14 7.34638 13.9298 7.4714 13.8047C7.59643 13.6797 7.66667 13.5101 7.66667 13.3333V7.66667H13.3333C13.5101 7.66667 13.6797 7.59643 13.8047 7.4714C13.9298 7.34638 14 7.17681 14 7C14 6.82319 13.9298 6.65362 13.8047 6.5286C13.6797 6.40357 13.5101 6.33333 13.3333 6.33333H7.66667V0.666667Z" fill="white"/>
</svg>
